HIERARCHY
ROOT root
{
  OFFSET 0 95.9893 0
  CHANNELS 6 Xposition Yposition Zposition Zrotation Xrotation Yrotation
  JOINT torso_1
  {
    OFFSET 0 5.22546 -1.18466
    CHANNELS 6 Xposition Yposition Zposition Zrotation Xrotation Yrotation
    JOINT torso_2
    {
      OFFSET 0 5.77894 1.10239
      CHANNELS 6 Xposition Yposition Zposition Zrotation Xrotation Yrotation
      JOINT torso_3
      {
        OFFSET -1.0557e-17 6.16289 0.118334
        CHANNELS 6 Xposition Yposition Zposition Zrotation Xrotation Yrotation
        JOINT torso_4
        {
          OFFSET -1.13649e-17 6.69386 -0.456341
          CHANNELS 6 Xposition Yposition Zposition Zrotation Xrotation Yrotation
          JOINT torso_5
          {
            OFFSET -2.02997e-17 7.82529 -1.54945
            CHANNELS 6 Xposition Yposition Zposition Zrotation Xrotation Yrotation
            JOINT torso_6
            {
              OFFSET -2.60628e-17 9.77186 -0.940923
              CHANNELS 6 Xposition Yposition Zposition Zrotation Xrotation Yrotation
              JOINT torso_7
              {
                OFFSET -2.98794e-17 10.8563 1.62248
                CHANNELS 6 Xposition Yposition Zposition Zrotation Xrotation Yrotation
                JOINT neck_1
                {
                  OFFSET -1.32927e-17 4.92478 0.736013
                  CHANNELS 6 Xposition Yposition Zposition Zrotation Xrotation Yrotation
                  JOINT neck_2
                  {
                    OFFSET -1.86396e-17 4.96043 0.433981
                    CHANNELS 6 Xposition Yposition Zposition Zrotation Xrotation Yrotation
                    JOINT head
                    {
                      OFFSET -2.06766e-17 4.97002 0.787173
                      CHANNELS 6 Xposition Yposition Zposition Zrotation Xrotation Yrotation
                      End Site
                      {
                        OFFSET 0 0.1 0
                      }
                    }
                  }
                }
                JOINT l_shoulder
                {
                  OFFSET 1.26863 -7.82717 7.75148
                  CHANNELS 6 Xposition Yposition Zposition Zrotation Xrotation Yrotation
                  JOINT l_up_arm
                  {
                    OFFSET 13.3291 3.34342 -3.36319
                    CHANNELS 6 Xposition Yposition Zposition Zrotation Xrotation Yrotation
                    JOINT l_low_arm
                    {
                      OFFSET 30.0522 0.0615366 0.141
                      CHANNELS 6 Xposition Yposition Zposition Zrotation Xrotation Yrotation
                      JOINT l_hand
                      {
                        OFFSET 24.9344 0.0510561 0.116988
                        CHANNELS 6 Xposition Yposition Zposition Zrotation Xrotation Yrotation
                        End Site
                        {
                          OFFSET 0.1 0 0
                        }
                      }
                    }
                  }
                }
                JOINT r_shoulder
                {
                  OFFSET -1.26863 -7.82715 7.75138
                  CHANNELS 6 Xposition Yposition Zposition Zrotation Xrotation Yrotation
                  JOINT r_up_arm
                  {
                    OFFSET -13.3291 3.34342 -3.36319
                    CHANNELS 6 Xposition Yposition Zposition Zrotation Xrotation Yrotation
                    JOINT r_low_arm
                    {
                      OFFSET -30.0522 0.0615366 0.141
                      CHANNELS 6 Xposition Yposition Zposition Zrotation Xrotation Yrotation
                      JOINT r_hand
                      {
                        OFFSET -24.9344 0.0510559 0.116988
                        CHANNELS 6 Xposition Yposition Zposition Zrotation Xrotation Yrotation
                        End Site
                        {
                          OFFSET -0.1 0 0
                        }
                      }
                    }
                  }
                }
              }
            }
          }
        }
      }
    }
  }
  JOINT l_up_leg
  {
    OFFSET 9.50369 -4.32711 2.09145
    CHANNELS 6 Xposition Yposition Zposition Zrotation Xrotation Yrotation
    JOINT l_low_leg
    {
      OFFSET -0.876987 -39.8926 -0.674123
      CHANNELS 6 Xposition Yposition Zposition Zrotation Xrotation Yrotation
      JOINT l_foot
      {
        OFFSET -2.39345 -41.5694 -6.22357
        CHANNELS 6 Xposition Yposition Zposition Zrotation Xrotation Yrotation
        JOINT l_toes
        {
          OFFSET 0.801613 -10.1701 12.8571
          CHANNELS 6 Xposition Yposition Zposition Zrotation Xrotation Yrotation
          End Site
          {
            OFFSET 0 0 0.1
          }
        }
      }
    }
  }
  JOINT r_up_leg
  {
    OFFSET -9.50369 -4.32711 2.09145
    CHANNELS 6 Xposition Yposition Zposition Zrotation Xrotation Yrotation
    JOINT r_low_leg
    {
      OFFSET 0.876987 -39.8926 -0.674123
      CHANNELS 6 Xposition Yposition Zposition Zrotation Xrotation Yrotation
      JOINT r_foot
      {
        OFFSET 2.39345 -41.5694 -6.22357
        CHANNELS 6 Xposition Yposition Zposition Zrotation Xrotation Yrotation
        JOINT r_toes
        {
          OFFSET -0.801613 -10.1701 12.8571
          CHANNELS 6 Xposition Yposition Zposition Zrotation Xrotation Yrotation
          End Site
          {
            OFFSET 0 0 0.1
          }
        }
      }
    }
  }
}
MOTION
Frames: 6
Frame Time: 0.020000
0 95.9893 0 -0 0 -0 0 5.22546 -1.18466 -0 0 -0 0 5.77894 1.10239 -0 0 -0 -1.0557e-17 6.16289 0.118334 -0 0 -0 -1.13649e-17 6.69386 -0.456341 -0 0 -0 -2.02997e-17 7.82529 -1.54945 -0 0 -0 -2.60628e-17 9.77186 -0.940923 -0 0 -0 -2.98794e-17 10.8563 1.62248 -0 0 -0 -1.32927e-17 4.92478 0.736013 -0 0 -0 -1.86396e-17 4.96043 0.433981 -0 0 -0 -2.06766e-17 4.97002 0.787173 -0 0 -0 1.26863 -7.82717 7.75148 -0 0 -0 13.3291 3.34342 -3.36319 -0 0 -0 30.0522 0.0615366 0.141 -0 0 -0 24.9344 0.0510561 0.116988 -0 0 -0 -1.26863 -7.82715 7.75138 -0 0 -0 -13.3291 3.34342 -3.36319 -0 0 -0 -30.0522 0.0615366 0.141 -0 0 -0 -24.9344 0.0510559 0.116988 -0 0 -0 9.50369 -4.32711 2.09145 -0 0 -0 -0.876987 -39.8926 -0.674123 -0 0 -0 -2.39345 -41.5694 -6.22357 -0 0 -0 0.801613 -10.1701 12.8571 -0 0 -0 -9.50369 -4.32711 2.09145 -0 0 -0 0.876987 -39.8926 -0.674123 -0 0 -0 2.39345 -41.5694 -6.22357 -0 0 -0 -0.801613 -10.1701 12.8571 -0 0 -0 
-5.61987 95.1968 -83.4446 -0.350385 -1.25739 -1.4684 0 5.22546 -1.18466 -0.252581 0.735179 0.273307 0 5.77894 1.10239 -0.0657801 0.83297 0.107236 -1.0557e-17 6.16289 0.118334 0.0036022 1.15478 0.176895 -1.13649e-17 6.69386 -0.456341 0.0890026 1.38159 0.159918 -2.02997e-17 7.82529 -1.54945 0.246623 1.07141 0.0972132 -2.60628e-17 9.77186 -0.940923 0.448289 0.869379 -0.172398 -2.98794e-17 10.8563 1.62248 -0.0190942 0.73323 0.0232692 -1.32927e-17 4.92478 0.736013 0.555725 0.859152 0.17629 -1.86396e-17 4.96043 0.433981 0.72516 -3.31433 -0.0188799 -2.06766e-17 4.97002 0.787173 -0.438111 -1.58607 5.12858 1.26863 -7.82717 7.75148 0.432108 1.98738 1.6291 13.3291 3.34342 -3.36319 -73.9392 0.810549 4.52176 30.0522 0.0615366 0.141 2.22247 -0.197963 -10.7699 24.9344 0.0510561 0.116988 1.04156 -52.1371 -2.69489 -1.26863 -7.82715 7.75138 0.817543 2.21035 -1.50364 -13.3291 3.34342 -3.36319 68.0383 -10.0179 -3.76261 -30.0522 0.0615366 0.141 -2.37999 -0.228038 11.5411 -24.9344 0.0510559 0.116988 0.17127 -22.5511 5.62662 9.50369 -4.32711 2.09145 4.2721 0.59058 -12.2547 -0.876987 -39.8926 -0.674123 -0.112247 0.418947 -0.00690229 -2.39345 -41.5694 -6.22357 -2.24928 -3.49238 15.5404 0.801613 -10.1701 12.8571 2.48481e-17 -7.95139e-16 1.2424e-17 -9.50369 -4.32711 2.09145 -0.00642129 1.45106 22.8423 0.876987 -39.8926 -0.674123 -0.0307524 -0.114744 -0.00203317 2.39345 -41.5694 -6.22357 -2.73456 -2.40376 -14.9952 -0.801613 -10.1701 12.8571 -5.96354e-16 -5.59082e-16 -1.27471e-14 
-5.6199 95.198 -83.4439 -0.352977 -1.27112 -1.46921 0 5.22546 -1.18466 -0.246831 0.740978 0.274129 0 5.77894 1.10239 -0.061219 0.837364 0.109051 -1.0557e-17 6.16289 0.118334 0.00713687 1.15762 0.178927 -1.13649e-17 6.69386 -0.456341 0.0916573 1.38206 0.16216 -2.02997e-17 7.82529 -1.54945 0.248656 1.06958 0.0990505 -2.60628e-17 9.77186 -0.940923 0.449855 0.866149 -0.170957 -2.98794e-17 10.8563 1.62248 -0.0191108 0.733342 0.0236344 -1.32927e-17 4.92478 0.736013 0.55617 0.83885 0.163657 -1.86396e-17 4.96043 0.433981 0.737482 -3.34293 -0.0244656 -2.06766e-17 4.97002 0.787173 -0.413216 -1.60641 5.12264 1.26863 -7.82717 7.75148 0.42931 1.99695 1.62348 13.3291 3.34342 -3.36319 -73.9551 0.80623 4.50304 30.0522 0.0615366 0.141 2.21257 -0.196137 -10.7214 24.9344 0.0510561 0.116988 1.03936 -52.1154 -2.69577 -1.26863 -7.82715 7.75138 0.821211 2.22152 -1.5053 -13.3291 3.34342 -3.36319 68.0437 -9.97833 -3.72342 -30.0522 0.0615366 0.141 -2.36943 -0.225943 11.4893 -24.9344 0.0510559 0.116988 0.18282 -22.6017 5.62781 9.50369 -4.32711 2.09145 4.27986 0.562732 -12.2509 -0.876987 -39.8926 -0.674123 -0.134418 0.501718 -0.00816889 -2.39345 -41.5694 -6.22357 -2.26766 -3.51781 15.5429 0.801613 -10.1701 12.8571 2.48481e-17 -7.95139e-16 1.2424e-17 -9.50369 -4.32711 2.09145 0.00201319 1.40112 22.841 0.876987 -39.8926 -0.674123 0.00265402 0.00990349 0.00017314 2.39345 -41.5694 -6.22357 -2.73466 -2.43486 -14.9958 -0.801613 -10.1701 12.8571 -1.99074e-16 -5.83912e-16 -1.27595e-14 
-5.62194 95.1998 -83.4427 -0.373272 -1.29521 -1.48744 0 5.22546 -1.18466 -0.233666 0.760294 0.276084 0 5.77894 1.10239 -0.0504455 0.8512 0.112643 -1.0557e-17 6.16289 0.118334 0.0154094 1.16611 0.182652 -1.13649e-17 6.69386 -0.456341 0.0976118 1.38157 0.166116 -2.02997e-17 7.82529 -1.54945 0.252862 1.06296 0.102018 -2.60628e-17 9.77186 -0.940923 0.452425 0.856804 -0.168618 -2.98794e-17 10.8563 1.62248 -0.0194777 0.734298 0.0242616 -1.32927e-17 4.92478 0.736013 0.556855 0.821106 0.141489 -1.86396e-17 4.96043 0.433981 0.758701 -3.37458 -0.034192 -2.06766e-17 4.97002 0.787173 -0.396919 -1.62751 5.13095 1.26863 -7.82717 7.75148 0.424242 2.01106 1.61526 13.3291 3.34342 -3.36319 -73.9807 0.782536 4.49884 30.0522 0.0615366 0.141 2.20556 -0.194849 -10.687 24.9344 0.0510561 0.116988 1.06285 -52.0908 -2.68137 -1.26863 -7.82715 7.75138 0.823451 2.23944 -1.50836 -13.3291 3.34342 -3.36319 68.0474 -9.88712 -3.67795 -30.0522 0.0615366 0.141 -2.35837 -0.223758 11.435 -24.9344 0.0510559 0.116988 0.222465 -22.7315 5.6514 9.50369 -4.32711 2.09145 4.31061 0.553508 -12.2539 -0.876987 -39.8926 -0.674123 -0.154929 0.5783 -0.00931225 -2.39345 -41.5694 -6.22357 -2.30078 -3.55511 15.5474 0.801613 -10.1701 12.8571 2.48481e-17 -7.95139e-16 1.2424e-17 -9.50369 -4.32711 2.09145 0.0321855 1.33915 22.8464 0.876987 -39.8926 -0.674123 0.0463101 0.172823 0.00294728 2.39345 -41.5694 -6.22357 -2.7217 -2.46409 -14.9976 -0.801613 -10.1701 12.8571 -5.96065e-16 -5.591e-16 -1.27471e-14 
-5.625 95.2018 -83.4409 -0.379369 -1.32078 -1.51603 0 5.22546 -1.18466 -0.225436 0.782997 0.278638 0 5.77894 1.10239 -0.0438106 0.867434 0.116194 -1.0557e-17 6.16289 0.118334 0.0205352 1.17654 0.186225 -1.13649e-17 6.69386 -0.456341 0.101402 1.38208 0.169825 -2.02997e-17 7.82529 -1.54945 0.2559 1.05689 0.10501 -2.60628e-17 9.77186 -0.940923 0.454772 0.847529 -0.166365 -2.98794e-17 10.8563 1.62248 -0.0197345 0.73523 0.0246578 -1.32927e-17 4.92478 0.736013 0.556759 0.817198 0.113051 -1.86396e-17 4.96043 0.433981 0.774844 -3.40514 -0.0470049 -2.06766e-17 4.97002 0.787173 -0.369797 -1.663 5.14004 1.26863 -7.82717 7.75148 0.426021 2.0272 1.60872 13.3291 3.34342 -3.36319 -74 0.802592 4.50021 30.0522 0.0615366 0.141 2.19748 -0.19337 -10.6474 24.9344 0.0510561 0.116988 1.03124 -52.1467 -2.70605 -1.26863 -7.82715 7.75138 0.820488 2.25769 -1.51089 -13.3291 3.34342 -3.36319 68.0767 -9.76921 -3.62331 -30.0522 0.0615366 0.141 -2.34829 -0.22178 11.3855 -24.9344 0.0510559 0.116988 0.231327 -22.797 5.67139 9.50369 -4.32711 2.09145 4.32533 0.549374 -12.2409 -0.876987 -39.8926 -0.674123 -0.174454 0.6512 -0.0103752 -2.39345 -41.5694 -6.22357 -2.32824 -3.57893 15.5517 0.801613 -10.1701 12.8571 2.48481e-17 -7.95139e-16 1.2424e-17 -9.50369 -4.32711 2.09145 0.0500908 1.26383 22.8473 0.876987 -39.8926 -0.674123 0.0978462 0.365187 0.00606299 2.39345 -41.5694 -6.22357 -2.71153 -2.51019 -14.9998 -0.801613 -10.1701 12.8571 -5.96354e-16 -5.59082e-16 -1.27471e-14 
-5.62705 95.2083 -83.4371 -0.39114 -1.37489 -1.53643 0 5.22546 -1.18466 -0.215789 0.815904 0.280815 0 5.77894 1.10239 -0.035723 0.891342 0.119396 -1.0557e-17 6.16289 0.118334 0.0269662 1.19252 0.189286 -1.13649e-17 6.69386 -0.456341 0.106327 1.38439 0.173091 -2.02997e-17 7.82529 -1.54945 0.259798 1.04973 0.107345 -2.60628e-17 9.77186 -0.940923 0.457566 0.836766 -0.164841 -2.98794e-17 10.8563 1.62248 -0.0202158 0.736708 0.0255067 -1.32927e-17 4.92478 0.736013 0.556581 0.810277 0.0773286 -1.86396e-17 4.96043 0.433981 0.796903 -3.43579 -0.0631091 -2.06766e-17 4.97002 0.787173 -0.336917 -1.68637 5.14907 1.26863 -7.82717 7.75148 0.417633 2.04299 1.60077 13.3291 3.34342 -3.36319 -74.0298 0.767874 4.5031 30.0522 0.0615366 0.141 2.19402 -0.19274 -10.6305 24.9344 0.0510561 0.116988 1.10297 -52.0845 -2.65388 -1.26863 -7.82715 7.75138 0.82566 2.27715 -1.50914 -13.3291 3.34342 -3.36319 68.0957 -9.70476 -3.56696 -30.0522 0.0615366 0.141 -2.3394 -0.22004 11.3419 -24.9344 0.0510559 0.116988 0.205868 -22.6911 5.63887 9.50369 -4.32711 2.09145 4.34592 0.562746 -12.2406 -0.876987 -39.8926 -0.674123 -0.198556 0.7412 -0.0116532 -2.39345 -41.5694 -6.22357 -2.36962 -3.59246 15.5578 0.801613 -10.1701 12.8571 2.48481e-17 -7.95139e-16 1.2424e-17 -9.50369 -4.32711 2.09145 0.0744667 1.21934 22.8129 0.876987 -39.8926 -0.674123 0.148651 0.554859 0.00896569 2.39345 -41.5694 -6.22357 -2.70211 -2.53042 -14.9995 -0.801613 -10.1701 12.8571 -5.96354e-16 -5.59082e-16 -1.27471e-14 
